Coordinates
version=1
nRows=24
nColumns=24
inDegrees=yes

Units are S.I. units (second, meters, Newtons, ...)
Angles are in degrees.

endheader
time	pelvis_tilt	pelvis_list	pelvis_rotation	pelvis_tx	pelvis_ty	pelvis_tz	hip_flexion_r	hip_adduction_r	hip_rotation_r	knee_angle_r	ankle_angle_r	subtalar_angle_r	mtp_angle_r	hip_flexion_l	hip_adduction_l	hip_rotation_l	knee_angle_l	ankle_angle_l	subtalar_angle_l	mtp_angle_l	lumbar_extension	lumbar_bending	lumbar_rotation
      0.45800000	     -4.88202221	      2.46901504	      0.54843733	     -0.81810247	      1.03940189	      0.25699114	     31.00672278	     -2.90703918	     -0.41086720	     -3.33897179	     10.83499102	     -3.74223965	      1.36055591	    -12.43164928	      3.76159270	      4.82534583	     -4.94800997	     18.68361633	      4.93111982	      0.11096787	    -13.87617847	     -0.97462336	     -6.21414987
      0.46216667	     -4.84632251	      2.45555176	      0.71719848	     -0.81236487	      1.03856450	      0.25706028	     30.84934426	     -2.93893542	     -0.12976423	     -3.58470045	     10.66545870	     -3.98146019	      4.97676020	    -12.61255483	      3.69297425	      4.83799739	     -5.34952907	     18.85922583	      5.17858608	     -1.10999883	    -13.91127339	     -0.79671625	     -6.29906598
      0.46633333	     -4.87535507	      2.46772232	      0.90124303	     -0.80658649	      1.03766282	      0.25712036	     30.77386882	     -3.00198823	      0.04979906	     -3.89381019	     10.57357428	     -3.99995553	      4.98195990	    -12.72661313	      3.65365976	      4.99201592	     -5.74843944	     18.96208499	      5.19658796	     -1.10477080	    -13.84907324	     -0.67492217	     -6.35321497
      0.47050000	     -4.88663073	      2.45257782	      1.07990132	     -0.80074998	      1.03682758	      0.25720871	     30.64252819	     -3.02990205	      0.28989290	     -4.15712880	     10.38817574	     -4.20740545	      5.00687670	    -12.83503543	      3.57497426	      4.99026043	     -6.19430806	     19.06845429	      5.48280994	     -1.06442668	    -13.80514138	     -0.48790044	     -6.54063062
      0.47466667	     -4.89326413	      2.43832844	      1.25090323	     -0.79490465	      1.03603370	      0.25731545	     30.51081436	     -3.05360648	      0.47528279	     -4.44628617	     10.18480931	     -4.36606716	      5.04482035	    -12.93057422	      3.49709930	      4.97034215	     -6.68313224	     19.18558098	      5.78043097	     -0.98806312	    -13.77073171	     -0.32464657	     -6.56051624
      0.47883333	     -4.91596867	      2.41341063	      1.42638519	     -0.78898672	      1.03527151	      0.25741290	     30.38381612	     -3.06914787	      0.60569227	     -4.73375674	      9.94518310	     -4.50668821	      5.08790724	    -13.00594038	      3.40565860	      4.95516019	     -7.17999152	     19.26361174	      6.05150240	     -0.88726304	    -13.70426286	     -0.14350071	     -6.61163558
      0.48300000	     -4.93598721	      2.38297461	      1.59829108	     -0.78305542	      1.03456261	      0.25752317	     30.25080847	     -3.07557342	      0.70800892	     -5.02671123	      9.65167747	     -4.66855470	      5.14289382	    -13.07199641	      3.30563334	      4.91441085	     -7.69714781	     19.32622798	      6.36067996	     -0.74121681	    -13.64716949	      0.04192608	     -6.64903225
      0.48716667	     -4.94568829	      2.33867944	      1.76863895	     -0.77709814	      1.03392869	      0.25763895	     30.09915863	     -3.06756704	      0.76730068	     -5.31391593	      9.30894503	     -4.83079284	      5.20445485	    -13.13102878	      3.18896619	      4.85848884	     -8.25156440	     19.36676012	      6.66977718	     -0.56322776	    -13.59463447	      0.24704241	     -6.67556900
      0.49133333	     -4.95414707	      2.30413951	      1.93948370	     -0.77112757	      1.03336191	      0.25774522	     29.96116257	     -3.07312882	      0.72043340	     -5.63663248	      8.94587284	     -4.87684947	      5.21874660	    -13.20656980	      3.08983060	      4.93898215	     -8.77165108	     19.33362778	      6.77684714	     -0.50193188	    -13.53683683	      0.42353707	     -6.64449867
      0.49550000	     -4.97422880	      2.23403136	      2.08323079	     -0.76512047	      1.03282116	      0.25793213	     29.81470054	     -3.02225742	      0.79033802	     -5.91981280	      8.48361586	     -5.16892197	      5.29812314	    -13.20021470	      2.93904436	      4.71371389	     -9.43357572	     19.36995674	      7.30276481	     -0.23413174	    -13.48062103	      0.66881080	     -6.69358397
      0.49966667	     -4.99782468	      2.15107292	      2.23767847	     -0.75907817	      1.03235559	      0.25807402	     29.67893797	     -2.97075449	      0.73337951	     -6.22575600	      8.04531711	     -5.31988731	      5.37778259	    -13.19833755	      2.78046198	      4.61299566	    -10.07859607	     19.33314874	      7.60679354	      0.05005883	    -13.39541871	      0.91992097	     -6.65323941
      0.50383333	     -5.02365877	      2.08245888	      2.37953635	     -0.75306090	      1.03196005	      0.25827255	     29.55643251	     -2.92620709	      0.68331146	     -6.54515111	      7.51926484	     -5.48718577	      5.51719682	    -13.16488156	      2.63387326	      4.46818739	    -10.77003562	     19.26085749	      8.01193585	      0.57923060	    -13.33077285	      1.12703744	     -6.62636861
      0.50800000	     -5.05399188	      1.98691030	      2.49960997	     -0.74700381	      1.03161299	      0.25848947	     29.46406834	     -2.84715450	      0.57933526	     -6.92274562	      7.00484952	     -5.65874471	      5.64217965	    -13.12135941	      2.46635102	      4.33430466	    -11.47110208	     19.15762137	      8.33369313	      1.11624319	    -13.24564005	      1.39818023	     -6.59102378
      0.51216667	     -5.06889464	      1.87529945	      2.61405061	     -0.74094389	      1.03136899	      0.25871107	     29.36256984	     -2.75334235	      0.43967896	     -7.31700236	      6.51451077	     -5.78697340	      5.75750450	    -13.06846455	      2.28120201	      4.17738501	    -12.21497574	     19.02396963	      8.64577735	      1.68070112	    -13.18194609	      1.68184554	     -6.50890007
      0.51633333	     -5.11656990	      1.76232837	      2.71483710	     -0.73486871	      1.03114120	      0.25896422	     29.31537754	     -2.65473615	      0.29142062	     -7.75233038	      6.03287092	     -5.90439181	      5.85260365	    -12.96197237	      2.10179039	      4.04581929	    -12.99829399	     18.83331733	      8.89213584	      2.24376841	    -13.07521334	      1.96066378	     -6.42380421
      0.52050000	     -5.13675948	      1.62725991	      2.82192655	     -0.72877759	      1.03105515	      0.25919150	     29.23401386	     -2.54223052	      0.10090465	     -8.18589980	      5.60171166	     -5.95295433	      5.89839030	    -12.86504017	      1.90076509	      3.95243795	    -13.81377725	     18.58838979	      9.03102852	      2.59814793	    -12.99299374	      2.25881724	     -6.31657874
      0.52466667	     -5.15705890	      1.50954091	      2.87920003	     -0.72272307	      1.03101693	      0.25954011	     29.19466696	     -2.42212242	     -0.04115921	     -8.69222183	      5.11568664	     -6.06051073	      6.35603549	    -12.75347372	      1.72265071	      3.80072851	    -14.63892424	     18.21675939	      9.21722476	      6.33800767	    -12.93794918	      2.53068090	     -6.22044326
      0.52883333	     -5.19590659	      1.37147813	      2.93022742	     -0.71663239	      1.03100792	      0.25987417	     29.19853717	     -2.28779342	     -0.24454225	     -9.26215970	      4.75569176	     -6.05298438	      6.34239216	    -12.59128038	      1.52662984	      3.62419031	    -15.53499287	     17.90259431	      9.43662039	      6.40580533	    -12.84378550	      2.83445856	     -6.06708297
      0.53300000	     -5.21131149	      1.22093916	      2.96103302	     -0.71055077	      1.03109820	      0.26024997	     29.18461212	     -2.13241104	     -0.42812388	     -9.84727332	      4.41656366	     -6.06151522	      6.32686960	    -12.42623095	      1.31631380	      3.40824778	    -16.47758706	     17.55574507	      9.67207566	      6.54677141	    -12.78343205	      3.14615996	     -5.91132928
      0.53716667	     -5.22984596	      1.07120659	      2.97198070	     -0.70446207	      1.03124123	      0.26066971	     29.19020592	     -1.97177412	     -0.60212633	    -10.47052088	      4.13072510	     -6.04876628	      6.30820017	    -12.22624157	      1.10845895	      3.16645687	    -17.47335066	     17.16105868	      9.89663996	      6.76194048	    -12.71796395	      3.45288606	     -5.73441751
      0.54133333	     -5.23778485	      0.91747497	      2.95562932	     -0.69836917	      1.03145703	      0.26115320	     29.19460832	     -1.79486247	     -0.75208571	    -11.11784916	      3.88761346	     -6.01419365	      6.27055803	    -12.02069616	      0.89550373	      2.88555895	    -18.49571440	     16.67288650	     10.15053548	      7.20848457	    -12.66857010	      3.75437063	     -5.54937475
      0.54550000	     -5.26236155	      0.75813054	      2.93318350	     -0.69227647	      1.03168669	      0.26163261	     29.22972126	     -1.61602087	     -0.92098856	    -11.79948641	      3.69549057	     -5.95484650	      6.23750590	    -11.76635931	      0.68401525	      2.64149662	    -19.57720743	     16.20764056	     10.30329877	      7.55161593	    -12.59787357	      4.07151324	     -5.33825308
      0.54966667	     -5.19347311	      0.56506158	      2.91350866	     -0.68618092	      1.03215576	      0.26213146	     29.12574599	     -1.39634097	     -1.05615130	    -12.40622628	      3.49461165	     -5.99013078	      5.91721062	    -11.58315767	      0.41571916	      2.34172994	    -20.68711188	     15.58498244	     10.51696605	     10.75831858	    -12.65313767	      4.43738871	     -5.15434912
      0.55383333	     -5.24365914	      0.43905935	      2.82794976	     -0.68007537	      1.03241287	      0.26274205	     29.20722748	     -1.22572618	     -1.16154615	    -13.12962981	      3.40089749	     -5.83167705	      5.90823489	    -11.26700876	      0.25127307	      2.07140221	    -21.82021461	     14.95103097	     10.55931353	     10.85047490	    -12.53736517	      4.68290486	     -4.93272435
